# xmcd CD database file
#
# Track frame offsets:
#	150
#	17223
#	36836
#	54177
#	73571
#	89535
#	111550
#	129475
#	145071
#	162754
#	178872
#	197994
#
# Disc length: 2908 seconds
#
# Revision: 1
# Processed by: cddbd v1.5.2PL0 Copyright (c) Steve Scherf et al.
# Submitted via: CDex 1.70beta2
#
DISCID=ab0b5a0c
DTITLE=Various Artist - All-Star Tribute To Shania Twain
DYEAR=2005
DGENRE=Pop
TTITLE0=Bonnie Bramlett - Honey I'm Home
TTITLE1=Wanda Jackson - Whose Bed Have Your Boots Been Under
TTITLE2=Lisa Loeb - Don't Be Stupid
TTITLE3=Lynn Anderson - I Won't Leave You Lonely
TTITLE4=Tiffany - You've Got A Way
TTITLE5=Cherie Currie - Whatever You Do! Don't
TTITLE6=Pearl Aday - That Don't Impress Me Much
TTITLE7=Juice Newton - Come On Over
TTITLE8=Rose - Man I Feel Like A Woman
TTITLE9=Kacee - You're Still The One
TTITLE10=Kelly Moneymaker - I'm Jealous
TTITLE11=Janelle Sadler - Ain't No Particular Way
EXTD=YEAR: 2005
EXTT0=
EXTT1=
EXTT2=
EXTT3=
EXTT4=
EXTT5=
EXTT6=
EXTT7=
EXTT8=
EXTT9=
EXTT10=
EXTT11=
PLAYORDER=
